<svg width="92" height="92" viewBox="0 0 92 92" fill="none" xmlns="http://www.w3.org/2000/svg">
<g clip-path="url(#clip0_1_222)">
<mask id="mask0_1_222" style="mask-type:luminance" maskUnits="userSpaceOnUse" x="0" y="0" width="92" height="92">
<path d="M0 0H92V92H0V0Z" fill="white"/>
</mask>
<g mask="url(#mask0_1_222)">
<path d="M46 0C47.0167 0 47.9917 0.403868 48.7106 1.12276C49.4295 1.84165 49.8333 2.81667 49.8333 3.83333V19.1667C49.8333 20.1833 49.4295 21.1584 48.7106 21.8772C47.9917 22.5961 47.0167 23 46 23C44.9833 23 44.0083 22.5961 43.2894 21.8772C42.5705 21.1584 42.1667 20.1833 42.1667 19.1667V3.83333C42.1667 2.81667 42.5705 1.84165 43.2894 1.12276C44.0083 0.403868 44.9833 0 46 0ZM18.8945 13.4742C18.1715 12.7759 17.2032 12.3895 16.1981 12.3982C15.193 12.407 14.2316 12.8101 13.5209 13.5209C12.8101 14.2316 12.407 15.193 12.3982 16.1981C12.3895 17.2032 12.7759 18.1715 13.4742 18.8945L24.3148 29.7352C25.0378 30.4334 26.0061 30.8198 27.0112 30.8111C28.0163 30.8023 28.9777 30.3992 29.6885 29.6885C30.3992 28.9777 30.8023 28.0163 30.8111 27.0112C30.8198 26.0061 30.4334 25.0378 29.7352 24.3148L18.8945 13.4742ZM3.83333 42.1667C2.81667 42.1667 1.84165 42.5705 1.12276 43.2894C0.403868 44.0083 0 44.9833 0 46C0 47.0167 0.403868 47.9917 1.12276 48.7106C1.84165 49.4295 2.81667 49.8333 3.83333 49.8333H19.1667C20.1833 49.8333 21.1584 49.4295 21.8772 48.7106C22.5961 47.9917 23 47.0167 23 46C23 44.9833 22.5961 44.0083 21.8772 43.2894C21.1584 42.5705 20.1833 42.1667 19.1667 42.1667H3.83333ZM69 46C69 44.9833 69.4039 44.0083 70.1227 43.2894C70.8416 42.5705 71.8167 42.1667 72.8333 42.1667H88.1667C89.1833 42.1667 90.1584 42.5705 90.8772 43.2894C91.5961 44.0083 92 44.9833 92 46C92 47.0167 91.5961 47.9917 90.8772 48.7106C90.1584 49.4295 89.1833 49.8333 88.1667 49.8333H72.8333C71.8167 49.8333 70.8416 49.4295 70.1227 48.7106C69.4039 47.9917 69 47.0167 69 46ZM67.6852 62.2648C66.9622 61.5666 65.9939 61.1802 64.9888 61.1889C63.9837 61.1977 63.0223 61.6008 62.3115 62.3115C61.6008 63.0223 61.1977 63.9837 61.1889 64.9888C61.1802 65.9939 61.5666 66.9622 62.2648 67.6852L73.1055 78.5258C73.4591 78.892 73.8821 79.184 74.3498 79.3849C74.8175 79.5858 75.3205 79.6915 75.8295 79.696C76.3384 79.7004 76.8432 79.6034 77.3143 79.4107C77.7854 79.2179 78.2134 78.9333 78.5733 78.5733C78.9333 78.2134 79.2179 77.7854 79.4107 77.3143C79.6034 76.8432 79.7004 76.3384 79.696 75.8295C79.6915 75.3205 79.5858 74.8175 79.3849 74.3498C79.184 73.8821 78.892 73.4591 78.5258 73.1055L67.6852 62.2648ZM29.7352 67.6852C30.1013 67.3316 30.3933 66.9086 30.5942 66.4409C30.7951 65.9732 30.9009 65.4702 30.9053 64.9612C30.9097 64.4522 30.8127 63.9474 30.62 63.4763C30.4272 63.0052 30.1426 62.5772 29.7827 62.2173C29.4228 61.8574 28.9948 61.5728 28.5237 61.38C28.0526 61.1873 27.5478 61.0903 27.0388 61.0947C26.5298 61.0991 26.0268 61.2049 25.5591 61.4058C25.0914 61.6067 24.6684 61.8987 24.3148 62.2648L13.4742 73.1017C13.108 73.4553 12.816 73.8783 12.6151 74.3459C12.4142 74.8136 12.3085 75.3166 12.304 75.8256C12.2996 76.3346 12.3966 76.8394 12.5893 77.3105C12.7821 77.7816 13.0667 78.2096 13.4267 78.5695C13.7866 78.9294 14.2146 79.2141 14.6857 79.4068C15.1568 79.5996 15.6616 79.6965 16.1705 79.6921C16.6795 79.6877 17.1825 79.582 17.6502 79.3811C18.1179 79.1802 18.5409 78.8881 18.8945 78.522L29.7352 67.6852ZM78.5258 18.8945C79.2241 18.1715 79.6105 17.2032 79.6018 16.1981C79.593 15.193 79.1899 14.2316 78.4791 13.5209C77.7684 12.8101 76.807 12.407 75.8019 12.3982C74.7968 12.3895 73.8285 12.7759 73.1055 13.4742L62.2648 24.3148C61.8987 24.6684 61.6067 25.0914 61.4058 25.5591C61.2049 26.0268 61.0991 26.5298 61.0947 27.0388C61.0903 27.5478 61.1873 28.0526 61.38 28.5237C61.5728 28.9948 61.8574 29.4228 62.2173 29.7827C62.5772 30.1426 63.0052 30.4272 63.4763 30.62C63.9474 30.8127 64.4522 30.9097 64.9612 30.9053C65.4702 30.9009 65.9732 30.7951 66.4409 30.5942C66.9086 30.3933 67.3316 30.1013 67.6852 29.7352L78.5258 18.8945ZM49.8333 72.8333C49.8333 71.8167 49.4295 70.8416 48.7106 70.1227C47.9917 69.4039 47.0167 69 46 69C44.9833 69 44.0083 69.4039 43.2894 70.1227C42.5705 70.8416 42.1667 71.8167 42.1667 72.8333V88.1667C42.1667 89.1833 42.5705 90.1584 43.2894 90.8772C44.0083 91.5961 44.9833 92 46 92C47.0167 92 47.9917 91.5961 48.7106 90.8772C49.4295 90.1584 49.8333 89.1833 49.8333 88.1667V72.8333ZM46 26.8333C40.9167 26.8333 36.0416 28.8527 32.4471 32.4471C28.8527 36.0416 26.8333 40.9167 26.8333 46C26.8333 51.0833 28.8527 55.9584 32.4471 59.5529C36.0416 63.1473 40.9167 65.1667 46 65.1667C51.0833 65.1667 55.9584 63.1473 59.5529 59.5529C63.1473 55.9584 65.1667 51.0833 65.1667 46C65.1667 40.9167 63.1473 36.0416 59.5529 32.4471C55.9584 28.8527 51.0833 26.8333 46 26.8333Z" fill="black"/>
</g>
</g>
<defs>
<clipPath id="clip0_1_222">
<rect width="92" height="92" fill="white"/>
</clipPath>
</defs>
</svg>
