<?xml version="1.0" encoding="UTF-8"?>
<svg version="1.1" xmlns="http://www.w3.org/2000/svg" width="225" height="225">
<path d="M0 0 C74.25 0 148.5 0 225 0 C225 74.25 225 148.5 225 225 C150.75 225 76.5 225 0 225 C0 150.75 0 76.5 0 0 Z " fill="#FEFEFE" transform="translate(0,0)"/>
<path d="M0 0 C1.27230469 0.01804688 2.54460937 0.03609375 3.85546875 0.0546875 C4.83128906 0.07789063 5.80710938 0.10109375 6.8125 0.125 C7.3075 1.115 7.3075 1.115 7.8125 2.125 C7.4825 2.785 7.1525 3.445 6.8125 4.125 C3.80504929 4.48443813 0.81896697 4.5693356 -2.20703125 4.68359375 C-5.47213196 5.16715388 -6.93262936 5.72817625 -9.1875 8.125 C-9.1875 9.445 -9.1875 10.765 -9.1875 12.125 C-8.259375 11.1659375 -8.259375 11.1659375 -7.3125 10.1875 C-4.51247307 7.4698268 -3.70611473 7.16271743 0.25 6.875 C3.8125 7.125 3.8125 7.125 5.8125 8.1875 C7.44779445 11.35588299 6.6528752 13.76349919 5.8125 17.125 C4.75 19.0625 4.75 19.0625 2.8125 20.125 C0.09392577 20.36139776 -2.44737669 20.25976016 -5.1875 20.125 C-5.1875 20.785 -5.1875 21.445 -5.1875 22.125 C19.0675 22.62 19.0675 22.62 43.8125 23.125 C43.8125 37.315 43.8125 51.505 43.8125 66.125 C13.7825 66.125 -16.2475 66.125 -47.1875 66.125 C-47.1875 51.605 -47.1875 37.085 -47.1875 22.125 C-34.9775 22.125 -22.7675 22.125 -10.1875 22.125 C-11.5075 19.815 -12.8275 17.505 -14.1875 15.125 C-14.90493672 12.07589393 -14.60390595 10.35214611 -14.1875 7.125 C-10.34173749 1.02482498 -7.02347706 -0.12887114 0 0 Z " fill="#FCFCFC" transform="translate(114.1875,46.875)"/>
<path d="M0 0 C30.03 0 60.06 0 91 0 C91 6.6 91 13.2 91 20 C89.02 20 87.04 20 85 20 C85.05800781 20.70125 85.11601562 21.4025 85.17578125 22.125 C85.46651672 28.2387517 84.99891692 32.22384513 81.58203125 37.34375 C78.77993084 40.27730697 76.13677688 41.80021224 72.1328125 42.50390625 C63.01031594 42.68161722 63.01031594 42.68161722 58.875 39.25 C55.70951699 36.131763 54.09525168 33.47068589 53.8046875 28.984375 C53.86979167 25.98958333 53.93489583 22.99479167 54 20 C48.72 20 43.44 20 38 20 C38.0825 21.85625 38.165 23.7125 38.25 25.625 C38.23742165 30.9707972 37.8063319 33.99333485 34 38 C30.30010527 41.42917072 27.4207651 42.29969749 22.5 42.5 C17.60042246 42.31360303 14.72458542 41.35212688 11 38 C7.43330022 33.94134164 6.87501874 30.62340715 6.9375 25.3125 C6.94652344 24.31863281 6.95554687 23.32476562 6.96484375 22.30078125 C6.97644531 21.54152344 6.98804687 20.78226563 7 20 C4.69 20 2.38 20 0 20 C0 13.4 0 6.8 0 0 Z " fill="#404040" transform="translate(67,136)"/>
<path d="M0 0 C1.27230469 0.01804688 2.54460937 0.03609375 3.85546875 0.0546875 C4.83128906 0.07789063 5.80710938 0.10109375 6.8125 0.125 C7.3075 1.115 7.3075 1.115 7.8125 2.125 C7.4825 2.785 7.1525 3.445 6.8125 4.125 C3.80504929 4.48443813 0.81896697 4.5693356 -2.20703125 4.68359375 C-5.47213196 5.16715388 -6.93262936 5.72817625 -9.1875 8.125 C-9.1875 9.445 -9.1875 10.765 -9.1875 12.125 C-8.259375 11.1659375 -8.259375 11.1659375 -7.3125 10.1875 C-4.51247307 7.4698268 -3.70611473 7.16271743 0.25 6.875 C3.8125 7.125 3.8125 7.125 5.8125 8.1875 C7.44779445 11.35588299 6.6528752 13.76349919 5.8125 17.125 C4.75 19.0625 4.75 19.0625 2.8125 20.125 C0.09392577 20.36139776 -2.44737669 20.25976016 -5.1875 20.125 C-5.1875 20.785 -5.1875 21.445 -5.1875 22.125 C19.0675 22.62 19.0675 22.62 43.8125 23.125 C43.8125 37.315 43.8125 51.505 43.8125 66.125 C13.7825 66.125 -16.2475 66.125 -47.1875 66.125 C-47.1875 51.605 -47.1875 37.085 -47.1875 22.125 C-34.9775 22.125 -22.7675 22.125 -10.1875 22.125 C-11.5075 19.815 -12.8275 17.505 -14.1875 15.125 C-14.90493672 12.07589393 -14.60390595 10.35214611 -14.1875 7.125 C-10.34173749 1.02482498 -7.02347706 -0.12887114 0 0 Z M-42.1875 27.125 C-42.1875 38.345 -42.1875 49.565 -42.1875 61.125 C-15.4575 61.125 11.2725 61.125 38.8125 61.125 C38.8125 49.905 38.8125 38.685 38.8125 27.125 C12.0825 27.125 -14.6475 27.125 -42.1875 27.125 Z " fill="#3C3C3C" transform="translate(114.1875,46.875)"/>
<path d="M0 0 C29.37 0 58.74 0 89 0 C89 5.94 89 11.88 89 18 C87.02 18 85.04 18 83 18 C83.04640625 18.94101563 83.0928125 19.88203125 83.140625 20.8515625 C83.47234593 32.2959347 83.47234593 32.2959347 81.3125 35.6875 C77.25208517 39.74791483 73.8958193 41.45008144 68.125 41.5625 C62.82567692 41.43850106 60.0575037 40.39992902 56.3046875 36.703125 C53.10444899 32.52556814 52.76945798 29.52710105 52.875 24.25 C52.89304688 23.07953125 52.91109375 21.9090625 52.9296875 20.703125 C52.95289063 19.81109375 52.97609375 18.9190625 53 18 C51.30230469 18.01740234 51.30230469 18.01740234 49.5703125 18.03515625 C48.08854331 18.04453454 46.60677235 18.0536347 45.125 18.0625 C44.37863281 18.07087891 43.63226563 18.07925781 42.86328125 18.08789062 C37.2265625 18.11328125 37.2265625 18.11328125 35 17 C35 16.34 35 15.68 35 15 C41.6 15 48.2 15 55 15 C55.66 13.68 56.32 12.36 57 11 C61.58421456 6.8742069 65.13171639 6.61605908 71.0234375 6.859375 C71.67570312 6.90578125 72.32796875 6.9521875 73 7 C73 7.33 73 7.66 73 8 C72.41992188 8.02578125 71.83984375 8.0515625 71.2421875 8.078125 C65.6291606 8.48567151 62.41122445 9.49364211 58 13 C60.31 12.34 62.62 11.68 65 11 C64.67 11.66 64.34 12.32 64 13 C63.01 13 62.02 13 61 13 C61 13.66 61 14.32 61 15 C62.03640625 14.98839844 63.0728125 14.97679687 64.140625 14.96484375 C65.51041486 14.95546163 66.88020668 14.94636188 68.25 14.9375 C68.93191406 14.92912109 69.61382812 14.92074219 70.31640625 14.91210938 C73.69342554 14.89571608 76.77291639 14.94371232 80 16 C80.33 15.34 80.66 14.68 81 14 C82.32 14 83.64 14 85 14 C85 10.7 85 7.4 85 4 C58.27 4 31.54 4 4 4 C4 7.3 4 10.6 4 14 C5.32 14.33 6.64 14.66 8 15 C7.01 15.495 7.01 15.495 6 16 C6 16.66 6 17.32 6 18 C4.02 18 2.04 18 0 18 C0 12.06 0 6.12 0 0 Z " fill="#292929" transform="translate(68,137)"/>
<path d="M0 0 C26.73 0 53.46 0 81 0 C81 3.3 81 6.6 81 10 C79.68 10 78.36 10 77 10 C76.67 10.99 76.34 11.98 76 13 C74.02 13 72.04 13 70 13 C70 12.67 70 12.34 70 12 C65.71 11.67 61.42 11.34 57 11 C57 10.34 57 9.68 57 9 C55.68 9.33 54.36 9.66 53 10 C54.65 8.35 56.3 6.7 58 5 C55.37098712 6.52206009 53.15634036 7.84365964 51 10 C47.58496843 10.50416005 44.13552796 10.41671483 40.6875 10.4375 C39.73681641 10.47037109 38.78613281 10.50324219 37.80664062 10.53710938 C30.73024173 10.59150517 30.73024173 10.59150517 26.95703125 7.53515625 C26.31121094 6.69855469 25.66539063 5.86195313 25 5 C21.0581748 3.0290874 16.29605722 3.54555107 12 4 C8.7269448 5.35680677 6.49650143 7.50349857 4 10 C2.68 10 1.36 10 0 10 C0 6.7 0 3.4 0 0 Z " fill="#FAFAFA" transform="translate(72,141)"/>
<path d="M0 0 C2.52197266 -0.34057617 2.52197266 -0.34057617 5.6640625 -0.29296875 C6.78554687 -0.28330078 7.90703125 -0.27363281 9.0625 -0.26367188 C10.238125 -0.23853516 11.41375 -0.21339844 12.625 -0.1875 C14.40003906 -0.16719727 14.40003906 -0.16719727 16.2109375 -0.14648438 C19.14107539 -0.11103916 22.07031459 -0.06162769 25 0 C26.43304064 2.86608129 26.30644155 4.81300783 26 8 C23.71582225 12.31455798 21.56005984 15.13452098 17 17 C12.38342304 17.59114705 8.06435818 17.4166454 4 15 C0.23362615 11.23362615 -1.87962752 8.41676171 -2 3 C-1.34 2.01 -0.68 1.02 0 0 Z " fill="#FAFAFA" transform="translate(124,156)"/>
<path d="M0 0 C1.12019531 -0.00128906 2.24039063 -0.00257813 3.39453125 -0.00390625 C4.57402344 -0.00003906 5.75351563 0.00382813 6.96875 0.0078125 C8.73798828 0.00201172 8.73798828 0.00201172 10.54296875 -0.00390625 C12.22326172 -0.00197266 12.22326172 -0.00197266 13.9375 0 C14.97326172 0.00112793 16.00902344 0.00225586 17.07617188 0.00341797 C19.46875 0.1328125 19.46875 0.1328125 20.46875 1.1328125 C20.94052341 5.77191765 21.2151688 8.78526767 18.21875 12.5078125 C13.84308919 16.68457964 10.65769269 17.58987697 4.71875 17.453125 C0.35436051 16.83180566 -2.29394375 14.28763167 -5.40625 11.3828125 C-7.14986431 7.89558389 -6.7851416 5.00465941 -6.53125 1.1328125 C-4.78579395 -0.61264355 -2.37000783 0.0025809 0 0 Z " fill="#FBFBFB" transform="translate(82.53125,155.8671875)"/>
<path d="M0 0 C5.53846154 3.07692308 5.53846154 3.07692308 7 6 C7.55512815 10.63213493 7.6364242 13.98172127 5.125 18 C1.61416183 21.30431828 -1.06429794 21.38948117 -5.73828125 21.359375 C-9.32520929 20.78943134 -10.86838894 18.79773951 -13 16 C-14.57455739 12.85088521 -14.34799118 10.47991184 -14 7 C-10.39251134 0.94264964 -6.92036822 -0.57669735 0 0 Z " fill="#1F1F1F" transform="translate(136,82)"/>
<path d="M0 0 C2.96922861 1.79349379 5.42452071 3.84904142 7 7 C7.5811138 14.08958838 7.5811138 14.08958838 5.125 17.9375 C1.6160425 21.34325286 -1.01818439 21.33097275 -5.73828125 21.29296875 C-9.0542278 20.86344199 -10.74987627 19.39075646 -13 17 C-14.87196713 13.25606575 -14.48511863 8.63176265 -13.3125 4.6875 C-9.74432577 0.09984742 -5.59921234 -0.78585436 0 0 Z " fill="#1F1F1F" transform="translate(93,82)"/>
<path d="M0 0 C3.63 0 7.26 0 11 0 C11.33 1.98 11.66 3.96 12 6 C12.66 6 13.32 6 14 6 C14.144375 5.195625 14.28875 4.39125 14.4375 3.5625 C15 1 15 1 16 0 C19.33618231 -0.14257189 22.65975606 -0.04228157 26 0 C26 5.61 26 11.22 26 17 C23.03 17 20.06 17 17 17 C17 15.68 17 14.36 17 13 C17.66 13 18.32 13 19 13 C18.67 10.69 18.34 8.38 18 6 C17.63648438 7.06541016 17.63648438 7.06541016 17.265625 8.15234375 C16.76289062 9.53099609 16.76289062 9.53099609 16.25 10.9375 C15.92515625 11.85402344 15.6003125 12.77054688 15.265625 13.71484375 C14.84796875 14.46894531 14.4303125 15.22304687 14 16 C12.68 16.33 11.36 16.66 10 17 C8.68 13.37 7.36 9.74 6 6 C6 9.63 6 13.26 6 17 C4.02 17 2.04 17 0 17 C0 11.39 0 5.78 0 0 Z " fill="#1B1B1B" transform="translate(71,116)"/>
<path d="M0 0 C2.578125 -0.04125 5.15625 -0.0825 7.8125 -0.125 C8.62050049 -0.14320801 9.42850098 -0.16141602 10.26098633 -0.18017578 C14.06519761 -0.20976568 15.76428169 -0.15714554 19 2 C19.25660094 5.07921132 19.39431504 7.21136993 18 10 C18.99 11.485 18.99 11.485 20 13 C20 14.32 20 15.64 20 17 C17.1875 17.3125 17.1875 17.3125 14 17 C12.11400657 14.61107499 11 13.08148442 11 10 C10.01 10 9.02 10 8 10 C8.33 12.31 8.66 14.62 9 17 C6.03 17 3.06 17 0 17 C0 11.39 0 5.78 0 0 Z " fill="#323232" transform="translate(120,116)"/>
<path d="M0 0 C15.18 0 30.36 0 46 0 C46 13.86 46 27.72 46 42 C17.95 42 -10.1 42 -39 42 C-39 41.01 -39 40.02 -39 39 C-28.49074259 38.95370163 -17.98150937 38.91814352 -7.47217083 38.89637566 C-2.59249461 38.88592927 2.28711193 38.87175448 7.16674805 38.84912109 C11.87404759 38.82742319 16.58128003 38.81543781 21.28862572 38.81024551 C23.08640792 38.80654426 24.88418637 38.79931684 26.68194008 38.78853989 C29.19600038 38.7740655 31.70978183 38.77202035 34.22387695 38.77294922 C34.97050095 38.76575867 35.71712494 38.75856812 36.4863739 38.75115967 C40.21512838 38.76611083 41.8128989 38.87526594 45 41 C45 27.8 45 14.6 45 1 C30.15 1 15.3 1 0 1 C0 0.67 0 0.34 0 0 Z " fill="#111111" transform="translate(111,70)"/>
<path d="M0 0 C4.29 0 8.58 0 13 0 C12.938125 1.03125 12.87625 2.0625 12.8125 3.125 C13.0135507 7.28004771 14.07223711 9.38544458 16 13 C16 14.32 16 15.64 16 17 C13.03 17 10.06 17 7 17 C7.33 15.02 7.66 13.04 8 11 C6.35 11 4.7 11 3 11 C3.33 12.98 3.66 14.96 4 17 C1.69 17 -0.62 17 -3 17 C-3 15.68 -3 14.36 -3 13 C-2.34 13 -1.68 13 -1 13 C-0.45627049 9.94152152 0 7.11227195 0 4 C0 2.68 0 1.36 0 0 Z " fill="#292929" transform="translate(102,116)"/>
<path d="M0 0 C1.65322266 0.01740234 1.65322266 0.01740234 3.33984375 0.03515625 C4.99693359 0.04869141 4.99693359 0.04869141 6.6875 0.0625 C7.54214844 0.07410156 8.39679688 0.08570312 9.27734375 0.09765625 C9.27734375 1.74765625 9.27734375 3.39765625 9.27734375 5.09765625 C6.51458198 4.57497159 3.95125615 3.98896038 1.27734375 3.09765625 C1.27734375 3.75765625 1.27734375 4.41765625 1.27734375 5.09765625 C2.70046875 5.53078125 2.70046875 5.53078125 4.15234375 5.97265625 C7.27734375 7.09765625 7.27734375 7.09765625 9.27734375 9.09765625 C9.52734375 12.09765625 9.52734375 12.09765625 9.27734375 15.09765625 C7.27734375 17.09765625 7.27734375 17.09765625 4.45703125 17.29296875 C3.36648437 17.26976562 2.2759375 17.2465625 1.15234375 17.22265625 C0.05664062 17.20460937 -1.0390625 17.1865625 -2.16796875 17.16796875 C-3.01101562 17.14476562 -3.8540625 17.1215625 -4.72265625 17.09765625 C-4.72265625 15.44765625 -4.72265625 13.79765625 -4.72265625 12.09765625 C-1.95989448 12.62034091 0.60343135 13.20635212 3.27734375 14.09765625 C3.27734375 13.10765625 3.27734375 12.11765625 3.27734375 11.09765625 C2.32859375 10.82953125 1.37984375 10.56140625 0.40234375 10.28515625 C-2.72265625 9.09765625 -2.72265625 9.09765625 -4.72265625 6.09765625 C-4.01388408 0.14397002 -4.01388408 0.14397002 0 0 Z " fill="#242424" transform="translate(146.72265625,115.90234375)"/>
<path d="M0 0 C0.598125 0.763125 1.19625 1.52625 1.8125 2.3125 C5.51458131 7.11589697 5.51458131 7.11589697 11 9 C18.07923764 9.71992247 22.09057907 7.83018023 28 4 C27.73212125 7.92888829 27.47562903 9.54876221 24.5625 12.3125 C19.26711528 15.79970457 14.24166715 15.85294813 8 15 C3.66954815 12.71964199 0.83494602 9.53339604 -1 5 C-0.625 2.25 -0.625 2.25 0 0 Z " fill="#282828" transform="translate(122,163)"/>
<path d="M0 0 C0 0.33 0 0.66 0 1 C-0.58007812 1.02578125 -1.16015625 1.0515625 -1.7578125 1.078125 C-7.3708394 1.48567151 -10.58877555 2.49364211 -15 6 C-12.69 5.34 -10.38 4.68 -8 4 C-8.33 4.66 -8.66 5.32 -9 6 C-9.99 6 -10.98 6 -12 6 C-12 6.66 -12 7.32 -12 8 C-12.66 8 -13.32 8 -14 8 C-14 8.66 -14 9.32 -14 10 C-7.07 10.33 -0.14 10.66 7 11 C7 11.33 7 11.66 7 12 C-0.92 12.33 -8.84 12.66 -17 13 C-17.66 15.31 -18.32 17.62 -19 20 C-19.33 20 -19.66 20 -20 20 C-20 17.03 -20 14.06 -20 11 C-21.69769531 11.01740234 -21.69769531 11.01740234 -23.4296875 11.03515625 C-24.91145669 11.04453454 -26.39322765 11.0536347 -27.875 11.0625 C-28.62136719 11.07087891 -29.36773437 11.07925781 -30.13671875 11.08789062 C-35.7734375 11.11328125 -35.7734375 11.11328125 -38 10 C-38 9.34 -38 8.68 -38 8 C-31.4 8 -24.8 8 -18 8 C-17.34 6.68 -16.68 5.36 -16 4 C-10.90664102 -0.58402308 -6.48876294 -0.46165112 0 0 Z " fill="#2A2A2A" transform="translate(141,144)"/>
<path d="M0 0 C3.25 2 3.25 2 5 4 C4.67 5.65 4.34 7.3 4 9 C2.02 9 0.04 9 -2 9 C-2 8.67 -2 8.34 -2 8 C-6.29 7.67 -10.58 7.34 -15 7 C-15 6.34 -15 5.68 -15 5 C-16.32 5.33 -17.64 5.66 -19 6 C-12.82988828 -0.33248308 -8.78853341 -0.90108798 0 0 Z " fill="#666666" transform="translate(144,145)"/>
<path d="M0 0 C2.60444348 -0.05394705 5.20776998 -0.09364469 7.8125 -0.125 C8.55048828 -0.14175781 9.28847656 -0.15851563 10.04882812 -0.17578125 C13.91246426 -0.21074628 15.70903668 -0.19397555 19 2 C19.25660094 5.07921132 19.39431504 7.21136993 18 10 C18.99 11.485 18.99 11.485 20 13 C20 14.32 20 15.64 20 17 C17.1875 17.3125 17.1875 17.3125 14 17 C11.49665055 14.58009553 11.04119694 12.65182721 10.82421875 9.21875 C10.81359919 6.47182468 10.87026776 3.74359669 11 1 C7.7 1 4.4 1 1 1 C0.67 1.66 0.34 2.32 0 3 C0 2.01 0 1.02 0 0 Z " fill="#1B1B1B" transform="translate(120,116)"/>
<path d="M0 0 C4.0226217 1.56435288 5.59149109 2.38723663 8 6 C6.68 5.67 5.36 5.34 4 5 C4 5.66 4 6.32 4 7 C-0.95 7 -5.9 7 -11 7 C-11 6.34 -11 5.68 -11 5 C-12.32 5.33 -13.64 5.66 -15 6 C-9.9830113 0.85098528 -7.28144464 -0.77145417 0 0 Z " fill="#818181" transform="translate(93,145)"/>
<path d="M0 0 C5.75 2.5 5.75 2.5 8 7 C14.93 7 21.86 7 29 7 C29 7.33 29 7.66 29 8 C22.4 8 15.8 8 9 8 C9 8.66 9 9.32 9 10 C14.94 10.33 20.88 10.66 27 11 C27 11.33 27 11.66 27 12 C12.25883826 13.14204471 -2.24414163 12.796979 -17 12 C-17 11.67 -17 11.34 -17 11 C-7.1 10.505 -7.1 10.505 3 10 C3.66 8.68 4.32 7.36 5 6 C3.06745228 3.9754262 1.36841312 2.57894208 -1 1 C-0.67 0.67 -0.34 0.34 0 0 Z " fill="#575757" transform="translate(94,144)"/>
<path d="M0 0 C1.27230469 0.01804688 2.54460937 0.03609375 3.85546875 0.0546875 C5.31919922 0.08949219 5.31919922 0.08949219 6.8125 0.125 C7.1425 0.785 7.4725 1.445 7.8125 2.125 C7.4825 2.785 7.1525 3.445 6.8125 4.125 C4.3359375 4.3984375 4.3359375 4.3984375 1.1875 4.5 C-4.41115766 4.85409171 -7.63271121 5.91594426 -12.1875 9.125 C-12.8475 8.465 -13.5075 7.805 -14.1875 7.125 C-9.73243997 1.28733513 -7.3859287 -0.13552163 0 0 Z " fill="#202020" transform="translate(114.1875,46.875)"/>
<path d="M0 0 C0.33 0 0.66 0 1 0 C1 11.88 1 23.76 1 36 C1.99 36.33 2.98 36.66 4 37 C1.03 37.495 1.03 37.495 -2 38 C-2.04936158 32.90968245 -2.08570105 27.81950357 -2.10986328 22.72900391 C-2.11993376 20.99655735 -2.13359089 19.26412784 -2.15087891 17.53173828 C-2.17508162 15.04455361 -2.18647239 12.55759325 -2.1953125 10.0703125 C-2.20563507 9.29317902 -2.21595764 8.51604553 -2.22659302 7.71536255 C-2.22699271 5.80874507 -2.1223214 3.90268964 -2 2 C-1.34 1.34 -0.68 0.68 0 0 Z " fill="#404040" transform="translate(71,74)"/>
<path d="M0 0 C0.33 0 0.66 0 1 0 C1.33 1.98 1.66 3.96 2 6 C2.33 6 2.66 6 3 6 C3 16.23 3 26.46 3 37 C1.68 36.67 0.36 36.34 -1 36 C-0.67 24.12 -0.34 12.24 0 0 Z " fill="#444444" transform="translate(153,74)"/>
<path d="M0 0 C3.3125 -0.25 3.3125 -0.25 7 0 C9 1.8125 9 1.8125 10 4 C9.67 4.99 9.34 5.98 9 7 C7 7.625 7 7.625 5 8 C4.67 8.33 4.34 8.66 4 9 C1.66702567 9.04092937 -0.66705225 9.04241723 -3 9 C-2.0022242 6.00667261 -1.2477975 5.05233685 1 3 C0.67 2.01 0.34 1.02 0 0 Z " fill="#272727" transform="translate(111,54)"/>
<path d="M0 0 C2.375 0.75 2.375 0.75 3.375 1.75 C3.5625 4.1875 3.5625 4.1875 3.375 6.75 C2.715 7.41 2.055 8.07 1.375 8.75 C-1.75 8.375 -1.75 8.375 -4.625 7.75 C-5.3125 5.4375 -5.3125 5.4375 -5.625 2.75 C-3.9659358 -0.015107 -3.22812218 -0.30744021 0 0 Z " fill="#EEEEEE" transform="translate(133.625,88.25)"/>
<path d="M0 0 C2.93453261 0.36681658 3.86437246 0.86437246 6 3 C5.44444444 7.55555556 5.44444444 7.55555556 4 9 C1.5625 9.1875 1.5625 9.1875 -1 9 C-1.66 8.34 -2.32 7.68 -3 7 C-2.67028521 3.70285207 -2.3773161 2.3773161 0 0 Z " fill="#EEEEEE" transform="translate(88,88)"/>
<path d="M0 0 C0.7425 0.66 1.485 1.32 2.25 2 C7.0125467 5.16748949 12.52176372 4.76066298 18 4 C20.73845211 2.93581091 22.60161669 1.74427877 25 0 C23.47759883 4.26272329 20.96724754 5.98031034 17 8 C12.21414261 8.85614622 8.90788257 8.46219476 4.5625 6.25 C2.21999536 4.19316666 1.03478033 2.89738492 0 0 Z " fill="#D2D2D2" transform="translate(77,169)"/>
<path d="M0 0 C0.9075 0.825 1.815 1.65 2.75 2.5 C7.76586156 6.0958926 13.06850511 5.78758438 19 5 C21.35564807 4.23080879 22.92344647 3.38436902 25 2 C24.0195412 4.58484592 23.06077857 5.94843031 20.9375 7.75 C16.88277373 9.47541544 13.3463659 9.58584896 9 9 C5.29705723 7.35424766 2.65758955 5.05130652 0 2 C0 1.34 0 0.68 0 0 Z " fill="#E7E7E7" transform="translate(123,168)"/>
<path d="M0 0 C4.0226217 1.56435288 5.59149109 2.38723663 8 6 C7.236875 5.67 6.47375 5.34 5.6875 5 C-1.22767129 3.12469931 -8.35470681 3.1263597 -15 6 C-9.9830113 0.85098528 -7.28144464 -0.77145417 0 0 Z " fill="#D3D3D3" transform="translate(93,145)"/>
<path d="M0 0 C0.33 0.66 0.66 1.32 1 2 C3.02463255 2.65213292 3.02463255 2.65213292 5 3 C5 3.33 5 3.66 5 4 C3.35 4 1.7 4 0 4 C0.33 5.98 0.66 7.96 1 10 C-1.31 10 -3.62 10 -6 10 C-6 8.68 -6 7.36 -6 6 C-5.34 6 -4.68 6 -4 6 C-3.67 4.35 -3.34 2.7 -3 1 C-2.01 0.67 -1.02 0.34 0 0 Z " fill="#1E1E1E" transform="translate(105,123)"/>
<path d="M0 0 C2.49102993 1.0661406 3.91933034 2.18608286 6 4 C6 4.66 6 5.32 6 6 C5.28714844 5.67515625 4.57429688 5.3503125 3.83984375 5.015625 C-2.53283058 2.73653927 -9.82920827 3.33154952 -16 6 C-10.63728139 0.49615722 -7.64972449 -0.96102066 0 0 Z " fill="#EEEEEE" transform="translate(141,145)"/>
<path d="M0 0 C0.66 0 1.32 0 2 0 C2 5.28 2 10.56 2 16 C-2 15 -2 15 -4 13 C-3.01 13 -2.02 13 -1 13 C-1.01160156 12.14535156 -1.02320313 11.29070312 -1.03515625 10.41015625 C-1.04869141 8.75306641 -1.04869141 8.75306641 -1.0625 7.0625 C-1.07410156 5.96035156 -1.08570313 4.85820312 -1.09765625 3.72265625 C-1 1 -1 1 0 0 Z " fill="#1F1F1F" transform="translate(154,138)"/>
<path d="M0 0 C0.66 0 1.32 0 2 0 C2.62054002 9.68731919 2.62054002 9.68731919 0.375 14.4375 C-2.2576701 17.27801247 -4.67863961 19.03737795 -8 21 C-8.33 20.34 -8.66 19.68 -9 19 C-7.576875 18.2265625 -7.576875 18.2265625 -6.125 17.4375 C-1.31675722 13.68707063 -1.1378292 9.30914661 -0.375 3.5625 C-0.25125 2.386875 -0.1275 1.21125 0 0 Z " fill="#2C2C2C" transform="translate(103,157)"/>
<path d="M0 0 C0.598125 0.763125 1.19625 1.52625 1.8125 2.3125 C5.51458131 7.11589697 5.51458131 7.11589697 11 9 C15.10789991 9.19480762 19.05301308 9.31566231 23 8 C21.18799513 10.34128465 20.26012775 10.95495623 17.29296875 11.46875 C7.87917938 11.56347996 7.87917938 11.56347996 4.25 8.5 C3.13625 7.2625 3.13625 7.2625 2 6 C1.01 6.495 1.01 6.495 0 7 C-0.38133299 5.0085944 -0.71325582 3.00720923 -1 1 C-0.67 0.67 -0.34 0.34 0 0 Z " fill="#212121" transform="translate(122,163)"/>
<path d="M0 0 C0.33 0.99 0.66 1.98 1 3 C1.66 3 2.32 3 3 3 C3.33 2.01 3.66 1.02 4 0 C3.67815583 2.89659753 3.38591512 5.31897331 1.9375 7.875 C-1.26056073 9.73193849 -4.35518997 9.17925295 -8 9 C-5.74259377 6.66475218 -3.7194239 4.81294927 -1 3 C-0.67 2.01 -0.34 1.02 0 0 Z " fill="#181818" transform="translate(117,58)"/>
<path d="M0 0 C3.37462715 0.54723683 5.08235 1.0549 8 3 C10.62531524 3.16713569 10.62531524 3.16713569 13 3 C12.67 3.66 12.34 4.32 12 5 C8.04 5 4.08 5 0 5 C0 3.35 0 1.7 0 0 Z " fill="#1B1B1B" transform="translate(142,128)"/>
<path d="M0 0 C0.763125 0.20625 1.52625 0.4125 2.3125 0.625 C1.6525 1.945 0.9925 3.265 0.3125 4.625 C-1.9975 4.625 -4.3075 4.625 -6.6875 4.625 C-5.39900677 0.7595203 -4.17039106 -0.58191503 0 0 Z " fill="#EAEAEA" transform="translate(114.6875,58.375)"/>
<path d="M0 0 C1.423125 1.2065625 1.423125 1.2065625 2.875 2.4375 C7.30250251 5.65584884 11.6529994 5.88165592 17 6 C17 6.33 17 6.66 17 7 C15.576875 7.2165625 15.576875 7.2165625 14.125 7.4375 C11.1065506 7.82935399 11.1065506 7.82935399 9 9 C5.40398901 7.2019945 2.63864207 5.029552 0 2 C0 1.34 0 0.68 0 0 Z " fill="#C5C5C5" transform="translate(123,168)"/>
<path d="M0 0 C0.33 0 0.66 0 1 0 C1 3.3 1 6.6 1 10 C2.32 10.33 3.64 10.66 5 11 C3 13 3 13 0.375 13.125 C-0.40875 13.08375 -1.1925 13.0425 -2 13 C-2 11.02 -2 9.04 -2 7 C-1.67 7 -1.34 7 -1 7 C-0.67 4.69 -0.34 2.38 0 0 Z " fill="#484848" transform="translate(71,141)"/>
<path d="M0 0 C4.48712078 0.17258157 6.50598402 0.56904989 9.9375 3.5625 C10.618125 4.366875 11.29875 5.17125 12 6 C10.58208592 5.54554036 9.16571954 5.08625056 7.75 4.625 C6.96109375 4.36976563 6.1721875 4.11453125 5.359375 3.8515625 C3.13372042 3.04826333 1.09068328 2.10288338 -1 1 C-0.67 0.67 -0.34 0.34 0 0 Z " fill="#E6E6E6" transform="translate(89,145)"/>
<path d="M0 0 C3.78786597 0.5260925 6.17152224 1.38103911 9 4 C9 4.66 9 5.32 9 6 C8.360625 5.690625 7.72125 5.38125 7.0625 5.0625 C3.07950896 3.68064597 -0.81650849 3.3463457 -5 3 C-5 2.67 -5 2.34 -5 2 C-3.35 1.67 -1.7 1.34 0 1 C0 0.67 0 0.34 0 0 Z " fill="#C6C6C6" transform="translate(138,145)"/>
<path d="M0 0 C0.33 0 0.66 0 1 0 C1.06058594 0.60328125 1.12117187 1.2065625 1.18359375 1.828125 C1.26738281 2.62734375 1.35117188 3.4265625 1.4375 4.25 C1.55931641 5.43335938 1.55931641 5.43335938 1.68359375 6.640625 C1.97634993 8.82364639 2.42064419 10.8773182 3 13 C0.13275314 12.42655063 -0.8614515 12.1385485 -3 10 C-2.01 10 -1.02 10 0 10 C0 6.7 0 3.4 0 0 Z " fill="#444444" transform="translate(153,141)"/>
<path d="M0 0 C0.33 0 0.66 0 1 0 C1 2.97 1 5.94 1 9 C-0.32 9.33 -1.64 9.66 -3 10 C-2.49287967 6.28111761 -1.88391785 3.26545761 0 0 Z " fill="#DCDCDC" transform="translate(89,120)"/>
<path d="M0 0 C0.33 0.66 0.66 1.32 1 2 C3.02463255 2.65213292 3.02463255 2.65213292 5 3 C5 3.33 5 3.66 5 4 C3.329375 4.2165625 3.329375 4.2165625 1.625 4.4375 C-1.82142047 4.78372035 -1.82142047 4.78372035 -4 6 C-3.67 4.35 -3.34 2.7 -3 1 C-2.01 0.67 -1.02 0.34 0 0 Z " fill="#121212" transform="translate(105,123)"/>
<path d="M0 0 C1.46063143 0.78741859 2.91843173 1.5800905 4.375 2.375 C5.59316406 3.03628906 5.59316406 3.03628906 6.8359375 3.7109375 C9 5 9 5 11 7 C4.64285714 6.51098901 4.64285714 6.51098901 1.5625 4.0625 C0 2 0 2 0 0 Z " fill="#E5E5E5" transform="translate(77,169)"/>
<path d="M0 0 C0.66 0 1.32 0 2 0 C2 2.97 2 5.94 2 9 C1.01 9.33 0.02 9.66 -1 10 C-0.67 6.7 -0.34 3.4 0 0 Z " fill="#141414" transform="translate(103,157)"/>
<path d="M0 0 C1.32 0 2.64 0 4 0 C4 1.65 4 3.3 4 5 C2.68 5 1.36 5 0 5 C0 3.35 0 1.7 0 0 Z " fill="#393939" transform="translate(152,116)"/>
<path d="M0 0 C0 0.99 0 1.98 0 3 C-2.92879371 2.37240135 -5.36095629 1.41377341 -8 0 C-4.94736336 -0.98120464 -3.05263664 -0.98120464 0 0 Z " fill="#DADADA" transform="translate(150,127)"/>
</svg>
